<svg xmlns="http://www.w3.org/2000/svg" viewBox="0 0 512 512" width="512" height="512">
  <!-- 背景 -->
  <rect width="512" height="512" rx="108" fill="#FFF7ED"/>

  <!-- 书签丝带（右上角，象征收藏/快照） -->
  <polygon points="360,80 440,80 440,180 400,150 360,180" fill="#FFAA00"/>

  <!-- 主文件夹体 -->
  <path d="M80,180 L80,400 Q80,428 108,428 L404,428 Q432,428 432,400 L432,200 Q432,172 404,172 L256,172 L228,148 Q220,140 208,140 L108,140 Q80,140 80,168 Z"
        fill="none" stroke="#FF6600" stroke-width="18" stroke-linejoin="round"/>

  <!-- 文件夹内：三个小文档（象征多个工作区快照） -->
  <!-- 文档1 -->
  <rect x="136" y="240" width="66" height="84" rx="8" fill="none" stroke="#FF6600" stroke-width="10"/>
  <line x1="150" y1="268" x2="188" y2="268" stroke="#FF6600" stroke-width="8" stroke-linecap="round"/>
  <line x1="150" y1="286" x2="188" y2="286" stroke="#FFD090" stroke-width="8" stroke-linecap="round"/>
  <line x1="150" y1="304" x2="174" y2="304" stroke="#FFD090" stroke-width="8" stroke-linecap="round"/>

  <!-- 文档2（中间，稍高，主角） -->
  <rect x="223" y="224" width="66" height="84" rx="8" fill="#FF6600"/>
  <line x1="237" y1="252" x2="275" y2="252" stroke="white" stroke-width="8" stroke-linecap="round"/>
  <line x1="237" y1="270" x2="275" y2="270" stroke="white" stroke-width="8" stroke-linecap="round" opacity="0.7"/>
  <line x1="237" y1="288" x2="261" y2="288" stroke="white" stroke-width="8" stroke-linecap="round" opacity="0.5"/>

  <!-- 文档3 -->
  <rect x="310" y="240" width="66" height="84" rx="8" fill="none" stroke="#FFAA00" stroke-width="10"/>
  <line x1="324" y1="268" x2="362" y2="268" stroke="#FFAA00" stroke-width="8" stroke-linecap="round"/>
  <line x1="324" y1="286" x2="362" y2="286" stroke="#FFD090" stroke-width="8" stroke-linecap="round"/>
  <line x1="324" y1="304" x2="348" y2="304" stroke="#FFD090" stroke-width="8" stroke-linecap="round"/>
</svg>

